#N canvas -1847 -1606 1702 865 12;
#X obj 100 134 bng 19 250 50 0 empty empty empty 0 -10 0 12 #fcfcfc #000000 #000000;
#X obj 46 240 ctlout;
#X text 142 157 CC Value, f 12;
#X text 141 181 Controller #;
#X text 141 206 Channel #, f 12;
#X floatatom 101 158 5 0 127 0 - - - 0;
#X floatatom 101 182 5 0 127 0 - - - 0;
#X floatatom 101 207 5 0 127 0 - - - 0;
#X obj 239 102 r \$0-set-cc;
#X obj 240 127 r \$0-set-co;
#X obj 241 151 r \$0-set-ch;
#X obj 242 189 s \$0-cc;
#X obj 243 214 s \$0-co;
#X obj 244 238 s \$0-ch;
#X obj 389 100 savestate;
#X obj 389 127 unpack f f f;
#X obj 389 208 s \$0-set-cc;
#X obj 470 154 s \$0-set-ch;
#X obj 430 181 s \$0-set-co;
#X obj 559 126 f;
#X obj 577 99 r \$0-cc;
#X obj 559 208 pack f f f;
#X obj 626 181 r \$0-ch;
#X obj 592 154 r \$0-co;
#X obj 49 59 inlet;
#X connect 0 0 5 0;
#X connect 0 0 6 0;
#X connect 0 0 7 0;
#X connect 5 0 1 0;
#X connect 5 0 11 0;
#X connect 6 0 1 1;
#X connect 6 0 12 0;
#X connect 7 0 1 2;
#X connect 7 0 13 0;
#X connect 8 0 5 0;
#X connect 9 0 6 0;
#X connect 10 0 7 0;
#X connect 14 0 15 0;
#X connect 14 1 19 0;
#X connect 15 0 16 0;
#X connect 15 1 18 0;
#X connect 15 2 17 0;
#X connect 19 0 21 0;
#X connect 20 0 19 1;
#X connect 21 0 14 0;
#X connect 22 0 21 2;
#X connect 23 0 21 1;
#X connect 24 0 0 0;
#X coords 0 -1 1 1 130 125 1 100 100;
