#N canvas -2727 -1974 2205 973 12;
#X obj 332 99 notein;
#X obj 100 150 bng 25 250 50 0 empty empty empty 17 7 0 10 #e4e4e4 #4d4d4d #373737;
#X obj 311 198 sel 1;
#X obj 311 169 expr if ($f1 == $f3 && $f2 != 0 \, 1 \, 0);
#X floatatom 100 128 5 0 127 0 - - - 0;
#X obj 181 237 outlet;
#X text 138 128 MIDI-IN Note value, f 20;
#X obj 624 89 savestate;
#X obj 37 37 r \$0-set-note;
#X obj 39 216 s \$0-note;
#X obj 624 113 unpack;
#X obj 624 137 s \$0-set-note;
#X obj 743 137 f;
#X obj 743 161 pack;
#X obj 765 92 r \$0-note;
#X connect 0 0 3 0;
#X connect 0 2 3 1;
#X connect 1 0 5 0;
#X connect 2 0 1 0;
#X connect 3 0 2 0;
#X connect 4 0 3 2;
#X connect 4 0 9 0;
#X connect 7 0 10 0;
#X connect 7 1 12 0;
#X connect 8 0 4 0;
#X connect 10 0 11 0;
#X connect 12 0 13 0;
#X connect 13 0 7 0;
#X connect 14 0 12 1;
#X coords 0 -1 1 1 185 75 1 100 100;
