#N canvas -4074 -1896 1798 1218 12;
#X obj 23 291 noteout;
#X text 140 241 Channel #, f 20;
#X floatatom 100 193 5 0 127 0 - - - 0;
#X floatatom 100 217 5 0 127 0 - - - 0;
#X floatatom 100 242 5 0 127 0 - - - 0;
#X text 141 192 MIDI-OUT Note Value, f 20;
#X text 140 216 Velocity, f 20;
#X obj 478 100 savestate;
#X obj 662 127 f;
#X obj 509 208 s \$0-set-vel;
#X obj 541 181 s \$0-set-ch;
#X obj 680 100 r \$0-note;
#X obj 478 235 s \$0-set-note;
#X obj 689 154 r \$0-vel;
#X obj 716 181 r \$0-ch;
#X obj 328 108 r \$0-set-note;
#X obj 328 136 r \$0-set-vel;
#X obj 329 164 r \$0-set-ch;
#X obj 331 213 s \$0-note;
#X obj 331 241 s \$0-vel;
#X obj 333 270 s \$0-ch;
#X obj 62 8 notein;
#X obj 100 147 bng 25 250 50 0 empty empty empty 17 7 0 10 #e4e4e4 #4d4d4d #373737;
#X obj 41 107 sel 1;
#X obj 41 78 expr if ($f1 == $f3 && $f2 != 0 \, 1 \, 0);
#X floatatom 100 125 5 0 127 0 - - - 0;
#X text 138 125 MIDI-IN Note value, f 20;
#X obj 330 189 r \$0-set-nin;
#X obj 573 154 s \$0-set-nin;
#X obj 743 208 r \$0-nin;
#X obj 334 298 s \$0-nin;
#X obj 478 127 unpack f f f f;
#X obj 662 235 pack f f f f;
#X connect 2 0 0 0;
#X connect 2 0 18 0;
#X connect 3 0 0 1;
#X connect 3 0 19 0;
#X connect 4 0 0 2;
#X connect 4 0 20 0;
#X connect 7 0 31 0;
#X connect 7 1 8 0;
#X connect 8 0 32 0;
#X connect 11 0 8 1;
#X connect 13 0 32 1;
#X connect 14 0 32 2;
#X connect 15 0 2 0;
#X connect 16 0 3 0;
#X connect 17 0 4 0;
#X connect 21 0 24 0;
#X connect 21 2 24 1;
#X connect 22 0 2 0;
#X connect 22 0 3 0;
#X connect 22 0 4 0;
#X connect 23 0 22 0;
#X connect 24 0 23 0;
#X connect 25 0 24 2;
#X connect 25 0 30 0;
#X connect 27 0 25 0;
#X connect 29 0 32 3;
#X connect 31 0 12 0;
#X connect 31 1 9 0;
#X connect 31 2 10 0;
#X connect 31 3 28 0;
#X connect 32 0 7 0;
#X coords 0 -1 1 1 185 160 1 100 100;
